# xmcd
#
# Track frame offsets: 
#        150
#        9950
#        21880
#        32862
#        44401
#        54971
#        64267
#        76825
#        87349
#        96799
#        105957
#        116425
#        127365
#        139611
#        151525
#        164359
#        173302
#        182018
#        192504
#        205075
#        215825
#        228199
#        238354
#        249570
#        261643
#        273081
#        284657
#        294479
#
# Disc length: 4057 seconds
#
# Revision: 1
# Processed by: cddbd v1.5.2PL0 Copyright (c) Steve Scherf et al.
# Submitted via: ExactAudioCopyFreeDBPlugin 1.0
#
DISCID=8b0fd71c
DTITLE=Various Artist - By the Bayou [Ace Records]
DYEAR=2017
DGENRE=Rhythm and Blues
TTITLE0=Rocket Morgan - What Ya' Gonna Do? (previously unissued altern
TTITLE0=ate take)
TTITLE1=Hal Young and The Electras - I'll Be Coming Home to You
TTITLE2=Gene Terry and His Down Beats - Never Let Her Go
TTITLE3=Warren Storm - Jailhouse Blues
TTITLE4=Robert Owens and The Owens Singers - I'm Too Tired to Rock
TTITLE5=Rod Bernard - Play a Song for My Baby
TTITLE6=Chuck Hillier - Do You Take Me for a Fool
TTITLE7=Warren Storm - I've Got My Heart in My Hand (previously unissu
TTITLE7=ed alternate take)
TTITLE8=Texas Guitar Slim (aka Johnny Winter) - Crazie Babie
TTITLE9=Rocket Morgan - I Know It's a Sin
TTITLE10=Charlotte Hunter - Now is the Time
TTITLE11=Jay Randall and The Electras - Walking Alone
TTITLE12=Hal Young and The Electras - I'm Falling for You Darling
TTITLE13=Rocket Morgan - This Life I Live
TTITLE14=Warren Storm - If You Don't Want Me
TTITLE15=Sidney Ester and The Dreamers - Let Me Walk with You
TTITLE16=Rod Bernard - Let's Get Together Tonight
TTITLE17=Ken Lindsey - I Got Loaded
TTITLE18=Charles Page and The Rockin' "Aces" - Searching for Love
TTITLE19=Gabe Dean - Where Should I Go
TTITLE20=Merton Thibodeaux - The Snake
TTITLE21=Jivin' Gene - Go On, Go On
TTITLE22=Amery Lynn - Want to Go Home
TTITLE23=Doug Ardoin and The Boogie Kings - Lost Love
TTITLE24=Everett Daigle and The Tune Tones - Lonely Street
TTITLE25=Vince Anthony and The Blue Notes - Lucy Lou
TTITLE26=Rocket Morgan - It's Too Late (previously unissued)
TTITLE27=Warren Storm - Thank You So Much
EXTD=
EXTT0=
EXTT1=
EXTT2=
EXTT3=
EXTT4=
EXTT5=
EXTT6=
EXTT7=
EXTT8=
EXTT9=
EXTT10=
EXTT11=
EXTT12=
EXTT13=
EXTT14=
EXTT15=
EXTT16=
EXTT17=
EXTT18=
EXTT19=
EXTT20=
EXTT21=
EXTT22=
EXTT23=
EXTT24=
EXTT25=
EXTT26=
EXTT27=
PLAYORDER=
